<svg xmlns="http://www.w3.org/2000/svg" version="1.1" xmlns:xlink="http://www.w3.org/1999/xlink" width="1000" height="1000"><g clip-path="url(#SvgjsClipPath1414)"><rect width="1000" height="1000" fill="#b10000"></rect><g transform="matrix(1.3671875,0,0,1.3671875,150,150)"><svg xmlns="http://www.w3.org/2000/svg" version="1.1" xmlns:xlink="http://www.w3.org/1999/xlink" width="512" height="512"><svg id="Layer_1" data-name="Layer 1" xmlns="http://www.w3.org/2000/svg" viewBox="0 0 512 512">
  <defs>
    <style>
      .cls-1 {
        fill: #fff;
      }
    </style>
  <clipPath id="SvgjsClipPath1414"><rect width="1000" height="1000" x="0" y="0" rx="100" ry="100"></rect></clipPath></defs>
  <path class="cls-1" d="M509.48,8.37c-2.2-4.16-5.78-6.9-10.35-8-.21-.06-.41-.07-.61-.09-.11-.03-.24-.06-.36-.09-1.12-.13-2.31-.2-3.51-.2-5.23,0-10.46,1.25-15.52,2.46l-.55.13c-2.47-1.39-5.43-2.09-9.03-2.09s-7.52.73-10.87,1.38l-1.08.2c-15.91,3.03-32.56,8.23-52.35,16.38-69.91,28.76-142.62,51.52-212.91,73.54l-1.58.5c-14.4,4.52-28.81,8.99-43.21,13.47-22.25,6.93-45.27,14.09-67.9,21.24-3.38,1.06-6.73,2.16-10.11,3.26-11.42,3.74-23.23,7.61-35.08,9.88l-1.48.29c-10.42,1.98-22.24,4.24-30.73,13.36-.11.12-.2.2-.27.3l-.15.16c-.09.12-.21.22-.31.33C.53,155.91.01,157.31,0,158.8s.51,3.02,1.44,4.17c.27.4.53.72.82.99,14.92,14.08,32.07,24.12,48.66,33.84,3.96,2.32,7.89,4.62,11.81,6.99,9.48,5.72,19.26,11.09,28.71,16.28,11.95,6.57,24.31,13.36,36.12,20.87,7.14,4.54,14.11,9.66,20.72,15.2-1.05,6.23-.8,12.88-.52,19.31.11,2.72.22,5.29.22,7.77,0,12.3-.12,24.81-.27,36.9-.05,3.8-.09,7.58-.12,11.37-.29,29.67-.34,61.5,1.32,93.2.04.6.14,1.19.29,1.75.16,2.8,1.93,5.64,4.69,5.64.16,0,.33,0,.51-.03.73,0,1.44-.22,2.05-.6,8.84-3.24,16.01-10.1,22.35-16.25,1.79-.35,3.23-1.74,3.74-3.62,1.09-1.05,2.43-2.32,3.81-3.57,7.11-6.41,14.75-12.35,22.12-18.1,5.58-4.34,11.34-8.84,16.87-13.5.87-.75,1.62-1.48,2.3-2.27l1.09,2.23c7.41,15.04,15.06,30.59,20.93,46.48,1.3,3.51,2.58,7.19,3.81,10.74,4.49,12.88,9.12,26.2,16.45,37.17,3.47,5.19,7.39,8.61,11.4,9.99,5.49,13.23,13.91,30.26,24.53,30.26,3.17,0,6.25-1.54,9.2-4.59,8.7-8.99,12.26-23.54,15.4-36.38.89-3.68,1.75-7.16,2.7-10.47,7.22-25.25,17.39-49.78,27.23-73.51,2.01-4.85,4.01-9.68,5.99-14.52,6.73-16.45,13.46-32.92,20.19-49.38,5.3-12.99,10.61-25.99,15.93-38.97,5.66-13.85,11.34-27.71,17.03-41.56,6.44-15.7,12.87-31.41,19.29-47.11,1.2-1.09,1.93-2.9,1.97-4.83l.68-1.68h0c9.57-23.44,21.95-53.81,34.35-84.69,4.03-10.05,9.45-19.6,14.69-28.83,8.55-15.04,17.38-30.59,20.85-49.2,1.28-6.86.61-13.22-1.88-17.9v-.03.03ZM291.73,480.75c1.32-.83,2.56-1.91,3.74-3.19,4.2,7.19,8.65,14.39,14.58,19.6-1.38,1.78-2.73,2.66-4.16,2.66-3.96,0-8.71-6.41-14.16-19.07h0ZM157.16,344.63c.05-8.57.14-17.13.24-25.7.07-6.2.13-12.4.19-18.58.07-7.74.08-15.88.05-24.19,0-1.62-.08-3.32-.16-5.11-.24-5.12-.49-10.91,1.09-15.04,3.65-5.98,11.41-10.28,18.26-14.08,2.58-1.44,5.02-2.79,7.11-4.16,10.23-6.69,20.49-13.36,30.73-20,17.73-11.5,35.49-22.95,53.23-34.4l7.96-5.13c19.57-12.63,39.15-25.25,58.69-37.92l23.07-14.94c-9.8,10.6-19.59,21.21-29.38,31.81l-16.74,18.13c-7.24,7.84-14.54,15.92-21.62,23.76-17.53,19.41-35.68,39.47-54.44,57.59-2.12,2.04-4.25,4.06-6.38,6.08-9.84,9.32-20.02,18.94-28.31,30.7-1.52,2.14-3.03,4.53-4.7,7.41-.02,0-.04,0-.06.03v-.16l-.13.23c-1.57.93-2.61,2.82-2.74,4.99l-.18.3.16-.06h0c-5.16,9.92-9.27,20.71-12.93,30.92-2.37,6.6-4.63,13.23-6.71,19.43-1.84,4.62-3.8,9.23-5.37,12.83-1.24,1.12-2.01,2.92-2.07,4.77-2.79,6.41-5.83,13.42-8.56,20.68-.4-18-.38-35.28-.29-50.17h0v-.03ZM164.54,403.84c.84.72,1.66,1.37,2.34,1.91.31.24.64.49.95.73,1.01.78,2.04,1.57,2.94,2.43-3.41,3.29-6.69,6.27-10.15,8.61,1.01-4.37,2.31-8.9,3.9-13.69h.01ZM179.24,400.85c-.32.29-.64.58-.94.88-1.65-1.91-3.5-3.45-5.31-4.93-1.57-1.29-3.06-2.55-4.43-3.98,1.2-3.03,2.52-6.3,4.12-10.02,4.45,4.18,8.35,9.52,10.62,14.55-1.37,1.16-2.72,2.32-4.06,3.51h0ZM177.25,372.21c.93-2.13,1.86-4.23,2.78-6.34,2.34,2.5,4.89,4.72,7.38,6.86,4.31,3.7,8.38,7.2,11.28,12.02-2.64,2.09-5.07,4.04-7.39,5.92-3.08-6.54-8.25-13.35-14.05-18.44h0v-.03ZM194.17,364.5c-3.46-3.03-6.73-5.92-9.53-9.49.69-1.7,1.38-3.39,2.05-5.09.93-2.39,1.88-4.76,2.84-7.13,3.08,5.25,6.63,10.47,10.63,15.55,1.45,1.84,3.18,3.52,4.86,5.16,3.11,3.03,6.29,6.18,7.65,10.25-.67.47-1.3.92-1.8,1.32-1.35,1.09-2.72,2.17-4.1,3.26-3.43-5.77-8.08-9.86-12.61-13.83h0ZM220.48,366.76c-2.37-4.99-5.97-8.74-9.49-12.38l-.52-.55c-5.43-5.62-10.46-12.73-14.99-21.1-.34-.65-.79-1.16-1.27-1.58,1.07-2.6,2.14-5.22,3.24-7.82.33-.79.72-1.67,1.14-2.59.13-.29.27-.58.4-.89,4.01,8.1,8.51,17.21,12.92,26.33,2.57,5.32,5.4,11.06,8.65,17.54.26.52.72,1.45-.09,3.02h.01ZM207.18,313.68c-1.01-2.06-2.03-4.11-3.04-6.17,2.83-4.83,5.73-9.1,8.88-12.96,7.3-8.97,15.77-16.93,23.94-24.59,3.14-2.96,6.39-6,9.54-9.09,17.15-16.77,33.74-35.19,49.79-53.01,7.15-7.94,14.53-16.13,21.85-24.06,7.56-8.18,15.11-16.36,22.67-24.56,17.48-18.97,35.57-38.57,53.42-57.77,1.42-1.54,1.88-3.9,1.19-6.14-.75-2.42-2.63-4.13-4.56-4.13-.88,0-1.75.35-2.52,1.01-5.36,4.63-11.66,8.28-17.74,11.81-3.14,1.83-6.41,3.71-9.48,5.69l-31.32,20.31c-20.97,13.59-41.96,27.14-62.97,40.67-20.35,13.11-41.37,26.68-62.52,40.41-10.26,6.64-20.5,13.33-30.73,20.03-1.64,1.06-3.37,2.1-5.19,3.19-5.63,3.37-11.42,6.86-15.77,12.24-4.29-3.61-8.47-6.86-12.74-9.85-14.4-10.1-29.79-18.48-44.67-26.57-7.49-4.07-15.22-8.28-22.74-12.65-3.27-1.91-6.57-3.8-9.88-5.69-16.85-9.65-34.24-19.63-49.53-32.73,5.42-3.51,12.08-4.9,18.06-6.15l1.19-.24c11.02-2.33,21.11-4.96,30.82-8.05,25.64-8.2,51.09-16.12,79.31-24.91l6.96-2.16c49.76-15.49,101.2-31.51,151.59-48.29,29.59-9.85,54.01-18.58,76.87-27.45,5.77-2.24,11.6-4.62,17.24-6.89,14.28-5.78,29.05-11.78,43.92-16.16,6.85-2.03,15.88-4.53,25.13-5.97l.42-.07c1.55-.24,3.47-.56,5.36-.56,5.42,0,6.29,2.65,6.56,3.52,3.12,9.52-5.52,25.5-10.68,35.03-.82,1.54-1.59,2.95-2.24,4.18-2.79,5.41-5.86,10.77-8.84,15.96-3.84,6.7-7.83,13.63-11.29,20.84-8.5,17.66-16.06,36.5-23.37,54.73-3.89,9.68-7.9,19.7-12,29.35-25.27,59.66-50.58,119.31-75.9,178.96-1.3,3.05-2.6,6.11-3.92,9.17-9.68,22.63-19.69,46.06-26.53,70.45-.33,1.21-.73,2.76-1.19,4.56-2.64,10.34-8.1,31.87-15.52,31.87-1.6,0-3.34-1.04-5.18-3.11-8.22-9.26-13.2-24.29-17.61-37.55-1.19-3.57-2.31-6.93-3.46-10.17-5.52-15.39-12.82-30.26-19.89-44.62-2.52-5.12-5.12-10.44-7.58-15.65-8.35-17.63-16.24-32.69-24.13-46.02v-.03.03ZM309.19,447.19c.86-3.09,1.71-6.23,2.5-9.28.25.3.47.58.72.86,4.03,4.96,8.21,10.05,13.34,13.1-1.06,3.47-2.08,6.9-3.05,10.35-4.29-4.33-9.04-9.36-13.5-15.04h0ZM329.24,440.92c-3.65-2.32-6.89-6.41-10.02-10.4-1.24-1.57-2.41-3.05-3.6-4.43-.09-.1-.19-.16-.28-.26,1.07-3.25,2.19-6.53,3.33-9.81,3.69,5.52,8.42,10.22,12.68,14.45.38.36.73.73,1.11,1.09-1.17,3.28-2.23,6.38-3.23,9.35h.01ZM336.51,420.47c-5.22-5.13-10.41-10.51-13.26-17.24,1.42-3.87,2.83-7.55,4.22-11.12,1.22,1.45,2.47,2.86,3.7,4.24.91,1.01,1.81,2.04,2.71,3.06l.84.98c2.28,2.6,4.84,5.54,6.09,8.8-1.44,3.68-2.86,7.46-4.3,11.27h.01ZM433.19,182.92c-2.52-1.52-4.9-3.42-7.39-5.45-1.85-1.5-3.76-3.03-5.73-4.4l2.17-5.12c4.4,4.4,9.03,7.31,13.59,8.5l-2.64,6.46h.01ZM494.66,46.23c-2.52-1.21-4.93-2.69-7.46-4.29-1.65-1.04-3.37-2.11-5.1-3.08,1.15-2.92,2.07-5.62,2.78-8.14,4.26,2.95,8.89,4.82,13.42,6.54-1.01,2.76-2.23,5.77-3.64,8.96h0ZM302.75,469.79l-1.08-1.86s-.02-.03-.02-.04c1.32-2.6,2.56-5.49,3.76-8.73,4.73,5.62,9.68,10.67,14.06,15-1.31,4.92-2.58,9.16-4.16,13.1-5-4.53-8.83-11.1-12.54-17.47h-.01ZM337.67,387.44c-2.06-2.21-4-4.33-5.72-6.51.05-.12.09-.22.13-.32,1.04-2.55,2.1-5.06,3.16-7.59l.19-.46h0c.88-2.13,1.78-4.24,2.67-6.36,4.37,5.35,7.84,11.85,11.21,18.16l.8,1.5c-.79,1.94-1.61,4.01-1.99,4.93-.82,2.04-1.65,4.08-2.47,6.14-2.38-3.44-5.23-6.5-7.99-9.48v-.03h.02ZM355.05,373.59c-3.41-6.26-6.95-12.22-11.36-17.23-.32-.36-.66-.63-1.01-.88l2.98-6.96c1.98,2.86,3.99,5.55,6.62,7.88.71.63,1.46,1.24,2.21,1.84,1.88,1.5,3.67,2.93,4.79,4.89-1.05,2.6-2.11,5.21-3.16,7.81l-1.06,2.63h-.01ZM359.65,348.34c-3.6-2.96-6.1-6.59-8.97-10.77l-.22-.33c.72-1.68,1.86-4.37,2.33-5.48l1.47-3.48c1.64,2.33,3.39,4.63,5.6,6.54.87.76,1.9,1.45,2.97,2.16,1.95,1.32,4.14,2.82,5.2,4.63l-1.93,4.72c-.78,1.88-1.54,3.75-2.31,5.64-1.37-1.38-2.8-2.57-4.13-3.67h-.02v.04ZM372.43,330.88c-1.34-1.31-2.78-2.46-4.18-3.51l-.64-.47c-1.74-1.29-3.38-2.53-4.7-4.23-.92-1.18-1.75-2.42-2.65-3.74-.42-.62-.84-1.22-1.26-1.84l3.45-8.15c2.84,3.05,5.93,5.64,8.96,8.14,1.64,1.35,3.32,2.75,4.93,4.2-.89,2.19-1.79,4.39-2.68,6.59l-1.24,3.03h0ZM376.84,307.37c-3.57-2.9-6.92-5.68-9.78-9.29l4.53-10.71c1.53,1.18,3.16,2.23,4.74,3.26,3.49,2.24,7.08,4.59,9.31,8l-4.95,12.01c-1.3-1.12-2.6-2.21-3.89-3.26h.02ZM381.72,281.04c-1.91-1.31-3.86-2.66-5.66-4.17l3.38-7.97c.65.58,1.31,1.16,1.95,1.75,3.72,3.39,7.55,6.89,12.03,9.17l-3.24,7.88c-2.61-2.65-5.57-4.7-8.45-6.67h-.01ZM397.77,269.29c-4.04-1.75-7.49-4.99-11.15-8.43-.88-.83-1.8-1.68-2.72-2.52l5.04-11.86c1.13,1.18,2.26,2.36,3.39,3.52,3.1,3.21,6.28,6.5,9.29,9.94l-3.85,9.35h0ZM399.01,241.55c-1.82-1.9-3.71-3.84-5.53-5.78l4.18-9.85c4.57,2.57,10,6.7,13.19,11.59l-4.74,11.55c-2.34-2.56-4.73-5.06-7.09-7.49h0ZM415.4,226.39c-3.69-4.29-8.47-8.21-13.32-10.91l4.7-11.07c2.43,2.34,4.99,4.44,7.48,6.47,1.85,1.51,3.73,3.08,5.55,4.7l-4.42,10.79h0v.03ZM420.58,202.04c-2.92-2.37-5.96-4.85-8.64-7.64-.21-.22-.44-.4-.65-.58l1.75-4.14h0l2.6-6.15c1.88,1.31,3.73,2.78,5.53,4.18,2.48,1.96,5.04,3.95,7.76,5.65l-4.76,11.6c-1.2-1.01-2.4-2.01-3.59-2.98v.03h-.01ZM439.88,165.35c-5.02-.24-9.8-4.39-13.12-8.14l1.8-4.27c.18-.42.35-.85.53-1.28l.35-.85h0l2.48-5.87c2.48,2.07,4.89,4.39,7.23,6.64,1.59,1.54,3.23,3.11,4.91,4.63l-3.76,9.23c-.14-.03-.28-.07-.44-.09h0ZM448.43,145.53c-1.35-1.25-2.7-2.53-4-3.8-2.56-2.49-5.22-5.03-8.04-7.32l2.74-6.51c.47-1.14.95-2.27,1.42-3.39,3.27,2.26,6.39,4.95,9.42,7.56.97.83,1.93,1.67,2.9,2.49-.49,1.24-1,2.5-1.5,3.74l-2.94,7.25h0ZM455.11,122.09c-3.21-2.8-6.53-5.65-10.09-8.05,1.98-4.57,3.85-8.77,5.68-12.7,4.03,2.69,7.92,5.8,11.84,9.07-1.87,4.53-3.67,9.06-5.4,13.42-.67-.58-1.35-1.15-2.01-1.74h-.01ZM467.02,99.9c-3.71-3.09-7.45-6.05-11.46-8.73,1.09-2.17,2.15-4.26,3.23-6.28,1.86,1.22,3.69,2.59,5.45,3.94,1.91,1.45,3.87,2.93,5.92,4.26-1.04,2.16-2.1,4.41-3.17,6.83h.02ZM475.28,83.09c-2.2-1.27-4.29-2.88-6.45-4.59-1.48-1.16-3.03-2.36-4.59-3.44,1.39-2.47,2.84-5.03,4.24-7.58,1.84,1.5,3.78,2.79,5.66,4.01,1.93,1.27,3.79,2.5,5.51,3.93-.77,1.35-1.47,2.59-2.11,3.7-.95,1.67-1.72,3.01-2.26,3.98h0ZM480.09,62.4c-2.3-1.47-4.45-2.9-6.43-4.7,1.5-2.95,2.84-5.71,4.03-8.37,1.74.98,3.47,2.06,5.17,3.11,2.25,1.39,4.54,2.82,6.93,4.07-1.47,2.93-3.07,6.03-4.82,9.25-1.6-1.24-3.27-2.32-4.89-3.37h0ZM501.52,26.14c-4.89-1.86-9.5-3.67-13.65-6.99-.4-.33-.81-.56-1.22-.72-.05-1.97-.27-3.83-.72-5.55,2.79-.58,5.84-1.08,8.83-1.08.82,0,1.64.04,2.43.12,1.93.55,3.25,1.61,4.05,3.25,1.17,2.37,1.25,6.07.29,10.97h-.01Z"></path>
</svg></svg></g></g></svg>